<svg xmlns="http://www.w3.org/2000/svg" width="128" height="128" viewBox="0 0 33.867 33.867"><path fill="#00a1ff" d="M17.764712 22.097243c1.284616-4.794253 7.205667-4.403231 7.205667-.236614l0 9.368472c0 .87947.70803 1.5875 1.5875 1.5875h3.343981c.879473 0 1.587503-.70803 1.5875-1.5875l0-12.840558c.000026-7.584508-13.863456-8.4984907-13.795036-2.481442zM3.9687497 10.379381c-.8794671 0-1.5875001.70803-1.5875001 1.5875v19.26222c0 .87947.7080304 1.5875 1.5875001 1.5875h3.3439814c.8794723 0 1.5875026-.70803 1.5874999-1.5875v-19.26222c.0000027-.87947-.7080276-1.5875-1.5874999-1.5875z" paint-order="fill markers stroke"/><path fill="#00a1ff" d="M13.700991 10.379381c-.879467 0-1.5875.70803-1.5875 1.5875l0 19.26222c0 .87947.70803 1.5875 1.5875 1.5875h3.343981c.879473 0 1.587503-.70803 1.5875-1.5875l0-19.26222c.000003-.87947-.708027-1.5875-1.5875-1.5875zM5.7133499 7.7174076A3.3295373 3.3295373 0 012.3838126 4.3878703 3.3295373 3.3295373 0 015.7133499 1.0583329 3.3295373 3.3295373 0 019.0428872 4.3878703 3.3295373 3.3295373 0 015.7133499 7.7174076z" paint-order="fill markers stroke"/></svg>